Coordinates
version=1
nRows=8
nColumns=40
inDegrees=yes

Units are S.I. units (second, meters, Newtons, ...)
Angles are in degrees.

endheader
time	pelvis_tilt	pelvis_list	pelvis_rotation	pelvis_tx	pelvis_ty	pelvis_tz	hip_flexion_r	hip_adduction_r	hip_rotation_r	knee_angle_r	knee_angle_r_beta	ankle_angle_r	subtalar_angle_r	mtp_angle_r	hip_flexion_l	hip_adduction_l	hip_rotation_l	knee_angle_l	knee_angle_l_beta	ankle_angle_l	subtalar_angle_l	mtp_angle_l	lumbar_extension	lumbar_bending	lumbar_rotation	arm_flex_r	arm_add_r	arm_rot_r	elbow_flex_r	pro_sup_r	wrist_flex_r	wrist_dev_r	arm_flex_l	arm_add_l	arm_rot_l	elbow_flex_l	pro_sup_l	wrist_flex_l	wrist_dev_l
     22.25000000	     -2.82266285	     -7.17234685	     -7.09870754	      0.88044066	      0.92241758	      0.52889684	     10.50617014	      7.69323286	     -9.75654485	     24.03867914	     24.03867914	     15.53703908	     -8.62002771	      0.79032380	     11.31766120	    -16.88420880	     -4.05464208	     58.57808940	     58.57808940	      7.39776555	    -19.37890695	     16.09319126	     -9.50501433	      8.25198245	      0.38563233	     -2.12625496	    -19.28053379	    -15.66187873	     63.73344060	     44.60923657	      0.00000000	      0.00000000	     16.35981882	    -14.56444444	    -12.85833399	     48.96590581	     45.45157811	      0.00000000	      0.00000000
     22.26842857	     -2.70416668	     -7.25971317	     -6.74681125	      0.87959022	      0.92099776	      0.53057751	     10.35473721	      7.81035035	     -9.90282610	     24.67492748	     24.67492748	     16.13446778	     -8.94899976	      0.64227569	     13.19451921	    -16.79365649	     -2.93274272	     60.90651184	     60.90651184	      8.16184829	    -19.43136892	     17.01236660	     -9.76073599	      8.21178541	      0.23934401	      0.28316191	    -19.06358861	    -15.59570360	     64.81029074	     44.60348258	      0.00000000	      0.00000000	     14.44125834	    -13.77735002	    -12.14440638	     46.06630985	     45.39256846	      0.00000000	      0.00000000
     22.28685714	     -2.56724059	     -7.40054205	     -6.39112964	      0.87865480	      0.91959468	      0.53226511	     10.14056601	      8.00702378	     -9.99917315	     25.24827533	     25.24827533	     16.79935759	     -9.25588228	      0.80974441	     15.11405871	    -16.67513768	     -1.77555364	     63.13388487	     63.13388487	      9.52244714	    -19.45462123	     19.45831713	    -10.02453668	      8.18213968	      0.51761234	      2.59104337	    -19.21124849	    -15.08319543	     65.18195300	     44.63940046	      0.00000000	      0.00000000	     13.40392876	    -12.81860876	    -10.68322636	     41.55673568	     45.33850287	      0.00000000	      0.00000000
     22.30528571	     -2.27208189	     -7.49766160	     -6.09484554	      0.87794423	      0.91856165	      0.53386985	      9.63318259	      8.15011620	    -10.06210471	     25.60753872	     25.60753872	     17.32366937	     -9.51500161	      0.64225625	     16.58032542	    -16.59555338	     -1.06907386	     64.68737617	     64.68737617	     10.06581527	    -19.50247602	     19.22965539	    -10.56870098	      8.06901156	      1.25574830	      4.52032986	    -19.40383881	    -15.21716524	     65.98629091	     44.62915447	      0.00000000	      0.00000000	     11.43436394	    -11.40665530	    -10.29082195	     40.31283621	     45.27229286	      0.00000000	      0.00000000
     22.32371429	     -2.37434464	     -7.57438796	     -5.69446638	      0.87671314	      0.91697137	      0.53523389	      9.72545254	      8.31286502	    -10.13171564	     26.18167819	     26.18167819	     17.88948272	    -10.03459301	      0.94923768	     18.75537413	    -16.39501032	     -0.09529456	     66.16645818	     66.16645818	     11.62721268	    -19.52502315	     21.71695366	    -10.54521885	      8.02970378	      0.51713951	      7.81830943	    -18.83796233	    -14.44756102	     66.40149906	     44.64967750	      0.00000000	      0.00000000	     10.19070546	    -11.06048841	     -8.54588610	     34.65895245	     45.14745324	      0.00000000	      0.00000000
     22.34214286	     -2.33721709	     -7.63250350	     -5.32810430	      0.87567140	      0.91585073	      0.53639217	      9.52999474	      8.43169951	    -10.20394242	     26.51220722	     26.51220722	     18.29909084	    -10.38971588	      0.91976070	     20.51878332	    -16.26807827	      0.47727323	     66.85371004	     66.85371004	     12.55867210	    -19.55742572	     21.89846146	    -10.81926254	      7.91472989	      0.55907068	     10.21762059	    -18.45869641	    -14.47212797	     67.61728286	     44.63195143	      0.00000000	      0.00000000	      8.18440676	    -10.14090177	     -7.99368041	     32.75385436	     45.07154600	      0.00000000	      0.00000000
     22.36057143	     -2.28401703	     -7.62369887	     -4.96654745	      0.87468741	      0.91514991	      0.53726383	      9.21753473	      8.48575071	    -10.24958031	     26.63014066	     26.63014066	     18.64931005	    -10.71830553	      0.98270308	     22.15656357	    -16.09202096	      0.83997136	     66.90464689	     66.90464689	     13.71050243	    -19.58768596	     22.51218695	    -11.04409214	      7.71546434	      0.58739007	     12.74226096	    -18.07119654	    -14.25449306	     68.54215178	     44.61919908	      0.00000000	      0.00000000	      6.34095066	     -9.27312511	     -7.27790699	     30.58166863	     44.97594331	      0.00000000	      0.00000000
     22.37900000	     -2.23394188	     -7.56526951	     -4.58758757	      0.87369287	      0.91479848	      0.53772157	      8.87200685	      8.45489959	    -10.32460293	     26.66423527	     26.66423527	     18.99351510	    -10.93939384	      1.17559124	     23.72129998	    -15.83204572	      1.09220524	     66.35782298	     66.35782298	     15.16281229	    -19.60326536	     23.87755243	    -11.24913745	      7.48879625	      0.71155867	     15.47110264	    -17.95843666	    -13.23022988	     68.42980786	     44.64886254	      0.00000000	      0.00000000	      4.87601904	     -8.40002151	     -5.63449741	     27.79063150	     44.80202260	      0.00000000	      0.00000000
